ffmpeg version 3.4.8-0ubuntu0.2 Copyright (c) 2000-2020 the FFmpeg developers
  built with gcc 7 (Ubuntu 7.5.0-3ubuntu1~18.04)
  configuration: --prefix=/usr --extra-version=0ubuntu0.2 --toolchain=hardened --libdir=/usr/lib/x86_64-linux-gnu --incdir=/usr/include/x86_64-linux-gnu --enable-gpl --disable-stripping --enable-avresample --enable-avisynth --enable-gnutls --enable-ladspa --enable-libass --enable-libbluray --enable-libbs2b --enable-libcaca --enable-libcdio --enable-libflite --enable-libfontconfig --enable-libfreetype --enable-libfribidi --enable-libgme --enable-libgsm --enable-libmp3lame --enable-libmysofa --enable-libopenjpeg --enable-libopenmpt --enable-libopus --enable-libpulse --enable-librubberband --enable-librsvg --enable-libshine --enable-libsnappy --enable-libsoxr --enable-libspeex --enable-libssh --enable-libtheora --enable-libtwolame --enable-libvorbis --enable-libvpx --enable-libwavpack --enable-libwebp --enable-libx265 --enable-libxml2 --enable-libxvid --enable-libzmq --enable-libzvbi --enable-omx --enable-openal --enable-opengl --enable-sdl2 --enable-libdc1394 --enable-libdrm --enable-libiec61883 --enable-chromaprint --enable-frei0r --enable-libopencv --enable-libx264 --enable-shared
  libavutil      55. 78.100 / 55. 78.100
  libavcodec     57.107.100 / 57.107.100
  libavformat    57. 83.100 / 57. 83.100
  libavdevice    57. 10.100 / 57. 10.100
  libavfilter     6.107.100 /  6.107.100
  libavresample   3.  7.  0 /  3.  7.  0
  libswscale      4.  8.100 /  4.  8.100
  libswresample   2.  9.100 /  2.  9.100
  libpostproc    54.  7.100 / 54.  7.100
[rawvideo @ 0x55af4ebbfa20] Estimating duration from bitrate, this may be inaccurate
Input #0, rawvideo, from '../../SVC-Encoder-20220109T061506Z-001/SVC-Encoder/Dataset/RollerCoaster/6f_2x2/tile_yuv/f3_t0_480x480.yuv':
  Duration: 00:00:10.00, start: 0.000000, bitrate: 82944 kb/s
    Stream #0:0: Video: rawvideo (I420 / 0x30323449), yuv420p, 480x480, 82944 kb/s, 30 tbr, 30 tbn, 30 tbc
Stream mapping:
  Stream #0:0 -> #0:0 (rawvideo (native) -> h264 (libx264))
Press [q] to stop, [?] for help
[libx264 @ 0x55af4ebccc60] using cpu capabilities: MMX2 SSE2Fast LZCNT SSSE3 SSE4.2 AVX
[libx264 @ 0x55af4ebccc60] profile High, level 3.0
Output #0, rawvideo, to 'RollerCoaster_f3_t0_480x480_x264_QP_24.h264':
  Metadata:
    encoder         : Lavf57.83.100
    Stream #0:0: Video: h264 (libx264), yuv420p, 480x480, q=-1--1, 30 fps, 30 tbn, 30 tbc
    Metadata:
      encoder         : Lavc57.107.100 libx264
    Side data:
      cpb: bitrate max/min/avg: 0/0/0 buffer size: 0 vbv_delay: -1
frame=  116 fps=0.0 q=30.0 PSNR=Y:nan U:nan V:nan *:nan size=     110kB time=00:00:02.43 bitrate= 371.4kbits/s speed=4.75x    frame=  192 fps=189 q=30.0 PSNR=Y:nan U:nan V:nan *:nan size=     205kB time=00:00:04.96 bitrate= 337.8kbits/s speed=4.88x    frame=  279 fps=184 q=30.0 PSNR=Y:nan U:nan V:nan *:nan size=     256kB time=00:00:07.86 bitrate= 266.6kbits/s speed=5.18x    frame=  300 fps=161 q=30.0 LPSNR=Y:inf U:inf V:inf *:inf size=     391kB time=00:00:09.93 bitrate= 322.3kbits/s speed=5.32x    
video:391kB audio:0kB subtitle:0kB other streams:0kB global headers:0kB muxing overhead: 0.000000%
[libx264 @ 0x55af4ebccc60] frame I:2     Avg QP:21.86  size: 28958  PSNR Mean Y:45.04 U:48.11 V:46.71 Avg:45.68 Global:45.62
[libx264 @ 0x55af4ebccc60] frame P:76    Avg QP:23.47  size:  3357  PSNR Mean Y:43.14 U:47.43 V:45.79 Avg:44.00 Global:43.95
[libx264 @ 0x55af4ebccc60] frame B:222   Avg QP:29.45  size:   392  PSNR Mean Y:42.36 U:47.31 V:45.62 Avg:43.33 Global:43.31
[libx264 @ 0x55af4ebccc60] consecutive B-frames:  1.3%  0.0%  0.0% 98.7%
[libx264 @ 0x55af4ebccc60] mb I  I16..4: 19.8% 50.4% 29.8%
[libx264 @ 0x55af4ebccc60] mb P  I16..4:  1.1%  0.5%  0.0%  P16..4: 38.1% 15.4%  9.2%  0.0%  0.0%    skip:35.7%
[libx264 @ 0x55af4ebccc60] mb B  I16..4:  0.0%  0.0%  0.0%  B16..8: 30.0%  2.7%  0.1%  direct: 0.1%  skip:67.1%  L0:43.7% L1:51.3% BI: 5.0%
[libx264 @ 0x55af4ebccc60] 8x8 transform intra:42.1% inter:62.7%
[libx264 @ 0x55af4ebccc60] coded y,uvDC,uvAC intra: 48.4% 64.1% 37.1% inter: 6.0% 5.5% 0.2%
[libx264 @ 0x55af4ebccc60] i16 v,h,dc,p: 36% 30% 19% 15%
[libx264 @ 0x55af4ebccc60] i8 v,h,dc,ddl,ddr,vr,hd,vl,hu: 21% 16% 24%  6%  6%  7%  6%  8%  6%
[libx264 @ 0x55af4ebccc60] i4 v,h,dc,ddl,ddr,vr,hd,vl,hu: 24% 14% 11%  6% 11% 13%  9%  6%  6%
[libx264 @ 0x55af4ebccc60] i8c dc,h,v,p: 43% 21% 22% 13%
[libx264 @ 0x55af4ebccc60] Weighted P-Frames: Y:1.3% UV:0.0%
[libx264 @ 0x55af4ebccc60] ref P L0: 55.5% 13.3% 21.6%  9.5%  0.1%
[libx264 @ 0x55af4ebccc60] ref B L0: 64.8% 27.2%  8.0%
[libx264 @ 0x55af4ebccc60] ref B L1: 76.3% 23.7%
[libx264 @ 0x55af4ebccc60] PSNR Mean Y:42.573 U:47.347 V:45.670 Avg:43.516 Global:43.474 kb/s:320.12
